<svg xmlns="http://www.w3.org/2000/svg" version="1.1" xmlns:xlink="http://www.w3.org/1999/xlink" xmlns:svgjs="http://svgjs.com/svgjs" width="1440" height="560" preserveAspectRatio="none" viewBox="0 0 1440 560"><g mask="url(&quot;#SvgjsMask1087&quot;)" fill="none"><path d="M1277.37 418.7 a140.13 140.13 0 1 0 280.26 0 a140.13 140.13 0 1 0 -280.26 0z" fill="rgba(217, 217, 217, 0.4)" class="triangle-float3"></path><path d="M-18.19101858842388 474.631911217281L-75.39392689817687 569.8335378479809 19.80769973252299 627.0364461577338 77.01060804227598 531.834819527034z" fill="rgba(217, 217, 217, 0.4)" class="triangle-float2"></path><path d="M450.184,643.997C486.805,643.089,516.081,617.252,534.426,585.544C552.806,553.776,561.039,515.279,543.221,483.192C524.954,450.297,487.768,432.06,450.184,433.84C415.336,435.491,388.944,461.267,371.256,491.337C353.249,521.95,342.069,558.361,358.38,589.91C375.863,623.725,412.129,644.941,450.184,643.997" fill="rgba(217, 217, 217, 0.4)" class="triangle-float3"></path><path d="M10.76 467.29 a128.66 128.66 0 1 0 257.32 0 a128.66 128.66 0 1 0 -257.32 0z" fill="rgba(217, 217, 217, 0.4)" class="triangle-float3"></path><path d="M1081.7078668095987 365.90296550694313L999.9133014437409 496.80163274983056 1130.8119686866285 578.5961981156884 1212.6065340524863 447.69753087280094z" fill="rgba(217, 217, 217, 0.4)" class="triangle-float3"></path><path d="M661.84 102.46 a179.39 179.39 0 1 0 358.78 0 a179.39 179.39 0 1 0 -358.78 0z" fill="rgba(217, 217, 217, 0.4)" class="triangle-float1"></path></g><defs><mask id="SvgjsMask1087"><rect width="1440" height="560" fill="#ffffff"></rect></mask><style>
            @keyframes float1 {
                0%{transform: translate(0, 0)}
                50%{transform: translate(-10px, 0)}
                100%{transform: translate(0, 0)}
            }

            .triangle-float1 {
                animation: float1 5s infinite;
            }

            @keyframes float2 {
                0%{transform: translate(0, 0)}
                50%{transform: translate(-5px, -5px)}
                100%{transform: translate(0, 0)}
            }

            .triangle-float2 {
                animation: float2 4s infinite;
            }

            @keyframes float3 {
                0%{transform: translate(0, 0)}
                50%{transform: translate(0, -10px)}
                100%{transform: translate(0, 0)}
            }

            .triangle-float3 {
                animation: float3 6s infinite;
            }
        </style></defs></svg>